<?xml version="1.0" standalone="no"?>
<!DOCTYPE svg PUBLIC "-//W3C//DTD SVG 20010904//EN"
 "http://www.w3.org/TR/2001/REC-SVG-20010904/DTD/svg10.dtd">
<svg version="1.0" xmlns="http://www.w3.org/2000/svg"
 width="150.000000pt" height="150.000000pt" viewBox="0 0 150.000000 150.000000"
 preserveAspectRatio="xMidYMid meet">
<metadata>
Created by potrace 1.11, written by Peter Selinger 2001-2013
</metadata>
<g transform="translate(0.000000,150.000000) scale(0.100000,-0.100000)"
fill="#000000" stroke="none">
<path d="M968 1324 c-2 -1 -16 -4 -33 -6 -144 -18 -232 -159 -172 -275 23 -44
83 -85 142 -97 90 -18 244 -62 269 -75 51 -29 78 -78 73 -133 -6 -60 -35 -101
-95 -129 -51 -25 -153 -33 -207 -16 -16 5 -35 9 -41 10 -23 1 -89 53 -107 85
-20 34 -25 52 -26 94 -1 23 -5 27 -26 26 -23 -2 -24 -5 -20 -52 14 -137 132
-216 315 -211 164 4 254 77 254 205 0 69 -22 111 -77 148 -35 24 -88 45 -112
43 -2 0 -23 6 -46 14 -23 8 -45 13 -49 10 -5 -3 -11 -1 -15 5 -4 6 -10 8 -15
5 -5 -3 -25 1 -45 9 -19 8 -38 15 -41 14 -21 -3 -75 42 -89 72 -28 62 -10 125
48 170 36 29 59 34 152 34 63 0 89 -5 122 -22 51 -27 89 -75 98 -124 6 -32 11
-38 32 -38 24 0 25 2 18 37 -19 104 -93 171 -207 188 -63 9 -97 13 -100 9z"/>
<path d="M300 1287 c-56 -142 -243 -607 -249 -622 -33 -73 -40 -103 -27 -108
26 -10 44 17 86 125 23 58 47 108 53 110 10 4 310 3 345 -1 6 0 12 -9 12 -18
1 -10 9 -36 20 -58 11 -22 19 -43 20 -47 0 -4 9 -32 20 -61 18 -49 23 -54 46
-49 14 2 23 10 21 16 -89 227 -257 656 -272 691 -5 11 -9 24 -9 30 -1 5 -14
11 -29 12 -21 1 -30 -4 -37 -20z m50 -60 c0 -10 77 -221 109 -302 25 -62 31
-76 31 -80 0 -3 -72 -5 -160 -5 l-159 0 15 42 c8 23 19 47 25 55 6 7 9 13 6
13 -3 0 8 33 24 73 17 39 32 77 33 82 2 6 8 21 13 35 6 14 19 44 28 67 16 39
35 50 35 20z"/>
<path d="M1446 1302 c-4 -7 -7 -146 -7 -277 0 -11 0 -85 0 -165 0 -80 0 -158
1 -175 1 -16 2 -36 1 -42 -1 -14 -1 -37 0 -65 0 -16 35 -32 43 -20 2 4 3 173
2 377 -1 336 -3 370 -18 373 -9 2 -19 -1 -22 -6z"/>
<path d="M302 410 c-73 -45 -43 -171 40 -170 33 1 66 30 77 67 12 42 -13 93
-55 109 -27 11 -35 10 -62 -6z m66 -28 c32 -21 13 -112 -24 -112 -27 0 -53 37
-49 71 5 44 39 62 73 41z"/>
<path d="M27 414 c-4 -4 -7 -43 -7 -86 0 -70 2 -78 19 -78 17 0 19 7 18 82 -2
75 -11 100 -30 82z"/>
<path d="M116 404 c-43 -42 -43 -105 -1 -141 28 -25 55 -29 85 -13 23 12 43
47 35 60 -8 12 -35 1 -35 -15 0 -15 -35 -26 -56 -18 -19 7 -29 50 -18 82 11
31 54 40 74 17 17 -22 41 -21 33 2 -14 42 -86 58 -117 26z"/>
<path d="M449 413 c0 -5 -2 -43 -2 -86 -2 -67 0 -77 16 -77 14 0 17 9 17 58
l0 57 27 -45 c60 -104 79 -102 80 10 1 46 -3 82 -9 86 -16 10 -24 -11 -23 -61
1 -25 0 -45 -1 -45 -2 0 -19 25 -39 55 -30 48 -63 71 -66 48z"/>
<path d="M636 404 c-9 -8 -16 -26 -16 -39 0 -19 9 -26 50 -40 51 -17 65 -39
31 -50 -24 -7 -51 4 -51 21 0 16 -26 19 -35 4 -9 -15 41 -60 68 -60 13 0 36 9
49 20 35 27 27 64 -16 80 -46 17 -57 24 -59 35 -3 17 42 17 59 0 25 -25 43 -2
19 25 -22 24 -77 27 -99 4z"/>
<path d="M879 407 c-47 -36 -48 -111 -2 -147 35 -27 69 -25 98 6 31 33 33 54
5 47 -11 -3 -20 -11 -20 -18 0 -17 -39 -26 -60 -15 -23 12 -30 53 -16 82 14
28 57 35 76 14 14 -18 40 -21 40 -6 0 39 -85 65 -121 37z"/>
<path d="M1029 418 c-5 -13 -5 -168 0 -169 3 -1 30 -2 59 -3 44 -1 52 1 52 17
0 11 -7 18 -17 16 -60 -6 -62 -3 -65 68 -2 42 -8 68 -15 71 -7 2 -14 2 -14 0z"/>
<path d="M1164 405 c-6 -15 0 -133 7 -139 34 -29 79 -32 109 -8 19 15 22 29
24 87 1 59 -2 70 -16 73 -16 3 -18 -5 -18 -61 0 -70 -14 -93 -50 -82 -21 7
-22 9 -23 93 -1 36 -6 52 -15 52 -7 0 -15 -7 -18 -15z"/>
<path d="M1339 388 c-1 -35 -1 -102 0 -129 1 -12 12 -15 56 -14 30 1 61 8 70
15 18 15 20 67 3 72 -7 3 -8 9 -3 19 26 41 -6 69 -77 69 -47 0 -48 -1 -49 -32z
m99 -20 c3 -14 -4 -18 -32 -18 -29 0 -34 3 -33 20 1 17 7 20 32 18 19 -2 31
-9 33 -20z m9 -65 c5 -13 -25 -30 -44 -27 -7 1 -17 2 -22 3 -5 0 -8 9 -6 19 2
9 4 20 4 23 2 11 64 -6 68 -18z"/>
</g>
</svg>
