<svg id="Layer_1" data-name="Layer 1" xmlns="http://www.w3.org/2000/svg" viewBox="0 0 742.94 140.43"><defs><style>.cls-1{fill:#fff;}</style></defs><title>logo</title><path class="cls-1" d="M86.06,36.43l52.94,134h-8.82l-16.9-43H49.07L32,170.48H23.16L77,36.43Zm24.59,83.92L81.93,44.51h-.38L51.7,120.35Z" transform="translate(-23.16 -33.24)"/><path class="cls-1" d="M243.57,74.73c-.94-22.9-18.21-34.36-43-34.36-15.21,0-36.8,6.38-36.8,28.54,0,21.59,22.9,25.16,45.62,29.85,22.9,4.69,45.81,10.51,45.81,37.17,0,27.79-26.66,37.73-47.12,37.73-31.35,0-56.88-13-56.51-47.5h8.26c-1.69,29.29,21.78,40.36,48.25,40.36,16.14,0,38.86-7.32,38.86-30.6,0-22.72-22.9-26.66-45.81-31.35-22.71-4.69-45.62-10.14-45.62-35.67,0-25.72,23.84-35.67,45.06-35.67,28,0,49.94,12,51.25,41.49Z" transform="translate(-23.16 -33.24)"/><path class="cls-1" d="M281.86,36.43h8.26v134h-8.26Z" transform="translate(-23.16 -33.24)"/><path class="cls-1" d="M326.75,83.73h8.86v50.62h-8.86Z" transform="translate(-23.16 -33.24)"/><path class="cls-1" d="M382,99.82c-1.49-5.81-5.25-10.07-12.62-10.07C358.58,89.75,354,99.32,354,109s4.54,19.28,15.38,19.28c7.87,0,12.2-5.88,12.9-13.26H391c-.71,12.12-9.29,20.49-21.55,20.49-15.17,0-24.24-12.05-24.24-26.51s9.07-26.52,24.24-26.52c11.42.07,20.42,6.38,21.48,17.3Z" transform="translate(-23.16 -33.24)"/><path class="cls-1" d="M446.28,109c0,14.46-9.07,26.51-24.25,26.51S397.79,123.5,397.79,109,406.87,82.52,422,82.52,446.28,94.57,446.28,109Zm-39.63,0c0,9.71,4.54,19.28,15.38,19.28s15.38-9.57,15.38-19.28S432.88,89.75,422,89.75,406.65,99.32,406.65,109Z" transform="translate(-23.16 -33.24)"/><path class="cls-1" d="M455.43,83.73h9.36L487.9,121H488V83.73h8.44v50.62h-9.36l-23-37.22h-.21v37.22h-8.44Z" transform="translate(-23.16 -33.24)"/><path class="cls-1" d="M514.21,117.47c0,7.8,5.74,10.85,12.83,10.85,7.8,0,10.7-3.83,10.7-7.66s-2.13-5.46-4.18-6.24c-3.54-1.35-8.15-2.27-15.1-4.18-8.65-2.34-11.2-7.59-11.2-12.83,0-10.14,9.36-14.89,18.51-14.89,10.56,0,19.43,5.6,19.43,16.16h-8.86c-.42-6.52-4.82-8.93-10.92-8.93-4.11,0-9.29,1.49-9.29,6.59,0,3.54,2.41,5.53,6,6.52.78.21,12,3.12,14.6,3.9a13.39,13.39,0,0,1,9.85,12.9c0,11.34-10.07,15.88-20.13,15.88-11.56,0-20.91-5.53-21.13-18.08Z" transform="translate(-23.16 -33.24)"/><path class="cls-1" d="M611.05,99.82c-1.49-5.81-5.25-10.07-12.62-10.07C587.59,89.75,583,99.32,583,109s4.54,19.28,15.38,19.28c7.87,0,12.2-5.88,12.9-13.26H620c-.71,12.12-9.29,20.49-21.55,20.49-15.17,0-24.25-12.05-24.25-26.51s9.07-26.52,24.25-26.52c11.42.07,20.42,6.38,21.48,17.3Z" transform="translate(-23.16 -33.24)"/><path class="cls-1" d="M629.49,83.73h8.86v43h25.74v7.66h-34.6Z" transform="translate(-23.16 -33.24)"/><path class="cls-1" d="M671,83.73h8.86v29.49c0,6.81.43,14.68,11.91,14.68s11.91-7.87,11.91-14.68V83.73h8.86v32.4c0,13-8.29,19.42-20.77,19.42S671,129.1,671,116.13Z" transform="translate(-23.16 -33.24)"/><path class="cls-1" d="M724.21,83.73h24.6c9.07,0,15,4.11,15,12.55,0,5.11-2.62,8.79-7.23,10.78v.14c6.17,1.35,9.5,6.17,9.5,13,0,7.94-5.53,14.11-18.65,14.11H724.21Zm8.86,21.2h14.46c4.25,0,7.44-2.48,7.44-7,0-5.11-2.62-6.95-7.44-6.95H733.07Zm0,22.19h15.67c5.39,0,8.51-2.91,8.51-8s-3.12-7.8-8.51-7.8H733.07Z" transform="translate(-23.16 -33.24)"/></svg>